<?xml version="1.0" encoding="UTF-8"?>
<svg width="138px" height="164px" viewBox="0 0 138 164" version="1.1" xmlns="http://www.w3.org/2000/svg" xmlns:xlink="http://www.w3.org/1999/xlink">
    <!-- Generator: Sketch 55.2 (78181) - https://sketchapp.com -->
    <title>pluginIconRed</title>
    <desc>Created with Sketch.</desc>
    <g id="Page-1" stroke="none" stroke-width="1" fill="none" fill-rule="evenodd">
        <g id="pluginIcon-copy" fill="#666666" fill-rule="nonzero">
            <path d="M94.25,26.909 C100.15,19.907 103.109,12.343 103.109,4.24 C103.109,3.166 103.06,2.082 102.939,0.999 C98.83,1.212 94.46,2.457 89.839,4.709 C85.209,6.995 81.392,9.86 78.39,13.306 C72.376,20.112 68.991,28.436 68.991,36.214 C68.991,37.289 69.06,38.312 69.179,39.283 C78.518,40.043 87.13,35.233 94.25,26.909 Z" id="apple_2_"></path>
            <path d="M126.01,112.381 C118.641,105.551 114.891,96.947 114.781,86.611 C114.661,73.34 120.69,62.995 132.881,55.609 C126.071,45.929 115.831,40.556 102.201,39.456 C97.171,39.029 91.031,40.113 83.756,42.731 C76.064,45.554 71.525,46.97 70.187,46.97 C68.395,46.97 64.311,45.759 57.949,43.371 C51.569,40.991 46.435,39.78 42.52,39.78 C35.365,39.899 28.721,41.759 22.572,45.409 C16.423,49.059 11.51,54.031 7.817,60.334 C3.118,68.181 0.772,77.545 0.772,88.402 C0.772,97.881 2.512,107.67 5.983,117.779 C9.224,127.14 13.361,135.349 18.393,142.429 C23.083,149.06 26.998,153.74 30.128,156.47 C35.032,161.029 39.945,163.199 44.874,162.99 C48.115,162.881 52.354,161.769 57.616,159.64 C62.87,157.519 67.782,156.47 72.361,156.47 C76.728,156.47 81.505,157.519 86.702,159.64 C91.882,161.769 96.332,162.82 100.021,162.82 C105.162,162.699 109.961,160.59 114.441,156.47 C117.332,153.959 121.082,149.439 125.662,142.909 C129.021,138.119 131.922,132.909 134.372,127.249 C135.382,124.849 136.332,122.349 137.232,119.739 C133.08,118 129.35,115.551 126.01,112.381 Z" id="apple_1_"></path>
        </g>
    </g>
</svg>