<?xml version="1.0" encoding="UTF-8"?>
<svg width="138px" height="164px" viewBox="0 0 138 164" version="1.1" xmlns="http://www.w3.org/2000/svg" xmlns:xlink="http://www.w3.org/1999/xlink">
    <!-- Generator: Sketch 55.2 (78181) - https://sketchapp.com -->
    <title>Untitled</title>
    <desc>Created with Sketch.</desc>
    <g id="Page-1" stroke="none" stroke-width="1" fill="none" fill-rule="evenodd">
        <g id="pluginIcon_dark_copy" fill="#FFFFFF" fill-rule="nonzero">
            <path d="M134.37,127.25 C131.92,132.91 129.02,138.12 125.66,142.91 C121.08,149.44 117.33,153.96 114.44,156.47 C109.96,160.59 105.16,162.7 100.02,162.82 C96.33,162.82 91.88,161.77 86.7,159.64 C81.503,157.52 76.727,156.47 72.36,156.47 C67.78,156.47 62.868,157.52 57.614,159.64 C52.352,161.77 48.113,162.88 44.872,162.99 C39.943,163.2 35.03,161.03 30.126,156.47 C26.996,153.74 23.081,149.06 18.391,142.43 C13.359,135.35 9.222,127.14 5.981,117.78 C2.51,107.67 0.77,97.88 0.77,88.402 C0.77,77.545 3.116,68.181 7.815,60.334 C11.508,54.031 16.421,49.059 22.57,45.409 C28.719,41.759 35.363,39.899 42.518,39.78 C46.433,39.78 51.567,40.991 57.947,43.371 C64.309,45.759 68.394,46.97 70.185,46.97 C71.524,46.97 76.062,45.554 83.755,42.731 C91.03,40.113 97.17,39.029 102.2,39.456 C115.83,40.556 126.07,45.929 132.88,55.609 C120.69,62.995 114.66,73.34 114.78,86.611 C114.89,96.948 118.64,105.55 126.01,112.38 C129.35,115.55 133.08,118 137.23,119.74 C136.33,122.35 135.38,124.85 134.37,127.25 L134.37,127.25 Z M103.11,4.24 C103.11,12.3421 100.15,19.907 94.25,26.909 C87.13,35.233 78.518,40.043 69.179,39.284 C69.06,38.312 68.991,37.289 68.991,36.214 C68.991,28.436 72.377,20.112 78.39,13.306 C81.392,9.86 85.21,6.9947 89.84,4.709 C94.46,2.4574 98.83,1.2122 102.94,0.999 C103.06,2.0821 103.11,3.1653 103.11,4.2399 L103.11,4.24 Z" id="Shape"></path>
        </g>
    </g>
</svg>